<mxfile host="app.diagrams.net" modified="2023-03-07T23:40:50.716Z" agent="5.0 (Windows NT 10.0; Win64; x64) AppleWebKit/537.36 (KHTML, like Gecko) Chrome/109.0.0.0 Safari/537.36 OPR/95.0.0.0" etag="xAfn1iXO48AoxhXybCll" version="21.0.2" type="github">
  <diagram name="Page-1" id="2a216829-ef6e-dabb-86c1-c78162f3ba2b">
    <mxGraphModel dx="1009" dy="573" grid="1" gridSize="10" guides="1" tooltips="1" connect="1" arrows="1" fold="1" page="1" pageScale="1" pageWidth="850" pageHeight="1100" background="none" math="0" shadow="0">
      <root>
        <mxCell id="0" />
        <mxCell id="1" parent="0" />
        <mxCell id="giPW7-HMkZSPk-WGeAI1-3" value="" style="edgeStyle=orthogonalEdgeStyle;rounded=0;orthogonalLoop=1;jettySize=auto;html=1;" edge="1" parent="1" source="7a84cebc1def654-1" target="giPW7-HMkZSPk-WGeAI1-2">
          <mxGeometry relative="1" as="geometry" />
        </mxCell>
        <mxCell id="7a84cebc1def654-1" value="" style="shape=mxgraph.bpmn.shape;html=1;verticalLabelPosition=bottom;labelBackgroundColor=#ffffff;verticalAlign=top;perimeter=ellipsePerimeter;outline=standard;symbol=general;" parent="1" vertex="1">
          <mxGeometry x="60" y="180" width="50" height="50" as="geometry" />
        </mxCell>
        <mxCell id="giPW7-HMkZSPk-WGeAI1-1" value="BPMN Cadastros" style="text;strokeColor=none;fillColor=none;html=1;fontSize=24;fontStyle=1;verticalAlign=middle;align=center;" vertex="1" parent="1">
          <mxGeometry x="380" y="50" width="210" height="40" as="geometry" />
        </mxCell>
        <mxCell id="giPW7-HMkZSPk-WGeAI1-5" style="edgeStyle=orthogonalEdgeStyle;rounded=0;orthogonalLoop=1;jettySize=auto;html=1;" edge="1" parent="1" source="giPW7-HMkZSPk-WGeAI1-2" target="giPW7-HMkZSPk-WGeAI1-4">
          <mxGeometry relative="1" as="geometry" />
        </mxCell>
        <mxCell id="giPW7-HMkZSPk-WGeAI1-2" value="Realizar login" style="rounded=1;whiteSpace=wrap;html=1;" vertex="1" parent="1">
          <mxGeometry x="180" y="175" width="120" height="60" as="geometry" />
        </mxCell>
        <mxCell id="giPW7-HMkZSPk-WGeAI1-7" style="edgeStyle=orthogonalEdgeStyle;rounded=0;orthogonalLoop=1;jettySize=auto;html=1;entryX=0;entryY=0.5;entryDx=0;entryDy=0;" edge="1" parent="1" source="giPW7-HMkZSPk-WGeAI1-4" target="giPW7-HMkZSPk-WGeAI1-6">
          <mxGeometry relative="1" as="geometry" />
        </mxCell>
        <mxCell id="giPW7-HMkZSPk-WGeAI1-4" value="Visualizar Home" style="rounded=1;whiteSpace=wrap;html=1;" vertex="1" parent="1">
          <mxGeometry x="370" y="175" width="120" height="60" as="geometry" />
        </mxCell>
        <mxCell id="giPW7-HMkZSPk-WGeAI1-11" style="edgeStyle=orthogonalEdgeStyle;rounded=0;orthogonalLoop=1;jettySize=auto;html=1;" edge="1" parent="1" source="giPW7-HMkZSPk-WGeAI1-6" target="giPW7-HMkZSPk-WGeAI1-9">
          <mxGeometry relative="1" as="geometry" />
        </mxCell>
        <mxCell id="giPW7-HMkZSPk-WGeAI1-12" style="edgeStyle=orthogonalEdgeStyle;rounded=0;orthogonalLoop=1;jettySize=auto;html=1;" edge="1" parent="1" source="giPW7-HMkZSPk-WGeAI1-6" target="giPW7-HMkZSPk-WGeAI1-8">
          <mxGeometry relative="1" as="geometry" />
        </mxCell>
        <mxCell id="giPW7-HMkZSPk-WGeAI1-13" style="edgeStyle=orthogonalEdgeStyle;rounded=0;orthogonalLoop=1;jettySize=auto;html=1;" edge="1" parent="1" source="giPW7-HMkZSPk-WGeAI1-6" target="giPW7-HMkZSPk-WGeAI1-10">
          <mxGeometry relative="1" as="geometry" />
        </mxCell>
        <mxCell id="giPW7-HMkZSPk-WGeAI1-6" value="Escolher tipo de cadastro" style="rhombus;whiteSpace=wrap;html=1;" vertex="1" parent="1">
          <mxGeometry x="540" y="162.5" width="120" height="85" as="geometry" />
        </mxCell>
        <mxCell id="giPW7-HMkZSPk-WGeAI1-8" value="Cadastrar tipo de movimentação&amp;nbsp;" style="rounded=1;whiteSpace=wrap;html=1;" vertex="1" parent="1">
          <mxGeometry x="710" y="247.5" width="120" height="60" as="geometry" />
        </mxCell>
        <mxCell id="giPW7-HMkZSPk-WGeAI1-9" value="Cadastrar localização" style="rounded=1;whiteSpace=wrap;html=1;" vertex="1" parent="1">
          <mxGeometry x="710" y="175" width="120" height="60" as="geometry" />
        </mxCell>
        <mxCell id="giPW7-HMkZSPk-WGeAI1-10" value="Cadastrar Produto" style="rounded=1;whiteSpace=wrap;html=1;" vertex="1" parent="1">
          <mxGeometry x="710" y="102.5" width="120" height="60" as="geometry" />
        </mxCell>
      </root>
    </mxGraphModel>
  </diagram>
</mxfile>
